<svg width="110" height="160" viewBox="0 0 110 160" fill="none" xmlns="http://www.w3.org/2000/svg">
<path d="M42.2378 31.3208L46.0223 43.9679C50.2313 58.0044 59.4213 69.0559 71.0928 74.1174L81.6094 78.6686C82.5584 79.0797 82.5584 80.6961 81.6094 81.1073L71.0928 85.6585C59.4209 90.7202 50.2311 101.772 46.0223 115.808L42.2378 128.455C41.8959 129.596 40.5518 129.596 40.2099 128.455L36.4254 115.808C32.2164 101.772 23.0263 90.72 11.3548 85.6585L0.838277 81.1073C-0.110806 80.6962 -0.110806 79.0798 0.838277 78.6686L11.3548 74.1174C23.0267 69.0557 32.2165 58.0038 36.4254 43.9679L40.2099 31.3208C40.5518 30.1724 41.8958 30.1724 42.2378 31.3208Z" fill="black"/>
<path d="M89.5796 0.930313L91.5013 7.33171C93.6353 14.4351 98.2863 20.0354 104.199 22.6017L109.522 24.9127C110.005 25.1254 110.005 25.9407 109.522 26.1462L104.199 28.4572C98.2922 31.0236 93.6353 36.6168 91.5013 43.7273L89.5796 50.1287C89.4028 50.71 88.7248 50.71 88.5539 50.1287L86.6322 43.7273C84.4982 36.6239 79.8472 31.0236 73.9346 28.4572L68.6116 26.1462C68.1282 25.9336 68.1282 25.1183 68.6116 24.9127L73.9346 22.6017C79.8413 20.0354 84.4982 14.4422 86.6322 7.33171L88.5539 0.930313C88.7248 0.341914 89.4087 0.341914 89.5796 0.930313Z" fill="black"/>
<path d="M89.5796 109.663L91.5013 116.064C93.6353 123.168 98.2863 128.768 104.199 131.334L109.522 133.645C110.005 133.858 110.005 134.673 109.522 134.879L104.199 137.19C98.2922 139.756 93.6353 145.349 91.5013 152.46L89.5796 158.861C89.4028 159.442 88.7248 159.442 88.5539 158.861L86.6322 152.46C84.4982 145.356 79.8472 139.756 73.9346 137.19L68.6116 134.879C68.1282 134.666 68.1282 133.851 68.6116 133.645L73.9346 131.334C79.8413 128.768 84.4982 123.175 86.6322 116.064L88.5539 109.663C88.7248 109.081 89.4087 109.081 89.5796 109.663Z" fill="black"/>
</svg>
